<svg xmlns="http://www.w3.org/2000/svg" viewBox="0 0 137.49 139.65"><g id="Layer_2" data-name="Layer 2"><g id="Layer_1-2" data-name="Layer 1"><path d="M36.81,38c-.05.72-.33.9-.7.9s-5.34.09-5.75,0-.42-.09-.75-.27-3.76-2.74-4.08-3-.46-.31-.46,0-.38,2.34-.52,2.79-.18.45-.51.45-3.2.05-3.48.05a1.34,1.34,0,0,1-.79-.23c-.23-.18-4.22-3.06-4.45-3.24s-.33-.22-.33,0-.18,2.56-.23,3-.32.45-.7.45-6.54,0-7,0a1.44,1.44,0,0,1-1-.36C5.66,38.45.6,33.5.42,33.27a1.16,1.16,0,0,1-.37-.9C0,32,.19,18.2.19,15.77S.42.7.46.34.42.06,1,0,9.89,0,10.4,0a1.43,1.43,0,0,1,1.11.36c.37.32,4.92,4.41,5.48,4.9s.42.32.51,0S18.75,1,18.89.47,19,.11,19.5.06L29.66,0a1.12,1.12,0,0,1,1.11.45l5.9,5.72c.19.22.23.22.28.71S36.81,37.37,36.81,38Zm-8-21.87c0-3.38,0-14.44,0-14.85s0-.31-.42-.31-7.75,0-8,0-.42.09-.46.27S15.18,16.58,15.09,17s-.19.63-.47-.27S9.84,1.64,9.75,1.42s-.14-.19-.42-.19S2.09,1.1,1.81,1.14s-.42,0-.42.23S1.07,16,1,18.78.88,23.64.88,25.13s.05,6.66.05,6.93-.05.63.28.63,5-.27,5.2-.27.37,0,.37-.32,0-9,0-11.2.1-8,0-8.64.19-.45.37.36S12,29.13,12.35,30s.46,1.89.51,2.12-.1.27.23.27,3-.09,3.16-.05.23.09.32-.31,1.81-6.21,3-10,2.69-8.55,2.83-9.22.28-.86.28,0-.05,18.85,0,19.26.05.36.28.36h.27s5,0,5.25-.09.28,0,.28-.23S28.83,19.59,28.83,16.13Z"/><path d="M70,39.21l-6.36.09a1.14,1.14,0,0,1-.55-.27c-.14-.13-2.56-2-3.39-2.83s-3.16-2.66-3.25-2.75-.14-.22-.19-.09-.27,1.58-.51,2.7-.6,2.52-.65,2.84-.09.36-.46.4-8,0-8.5,0a1,1,0,0,1-.83-.36c-.33-.23-5.94-5.58-6.13-5.76a.68.68,0,0,1-.09-.72c.09-.36,7.75-31.68,7.8-31.9s.18-.27.55-.32,8.22,0,8.82,0,.75.23,1.3.63,6.13,5.58,6.46,5.9a1.39,1.39,0,0,1,.51.85c.14.45,1.34,5.36,2.32,9.81s3.29,14,3.34,14.31a5.86,5.86,0,0,1,.14.9c0,.45,0,5.94.09,6.25S70.28,39.21,70,39.21Zm-6.68-6.93c0-.09-1.39-6.79-3.06-13.77-1.95-8.14-4.13-17-4.13-17S56.12,1,55.93,1L48,1.06c-.09,0-.14,0-.18.27s-7.62,30.73-7.71,31c0,.14,0,.18.09.18s1.81,0,2.84,0,2.87,0,3,0,.14,0,.14-.14.7-2.65.93-3.55.7-2.7.79-2.84a.4.4,0,0,1,.32-.27c.24,0,1.67,0,3.39,0s3.76,0,4,0,.37.14.42.36,1.3,6,1.34,6.21,0,.23.19.23l5.52,0C63.45,32.55,63.41,32.46,63.36,32.28ZM55,20.58c.1.32-.27.36-.55.41s-4.51,0-4.78,0c-.1,0-.42,0-.38-.36s.84-3.69,1.3-5.53,1.16-5.13,1.3-5.71.42-.45.47-.14.88,3.51,1.53,6.39S55,20.31,55,20.58Z"/><path d="M99.05,33a5.85,5.85,0,0,1-2,4.14,5.8,5.8,0,0,1-4.18,2c-1.62.18-13.09.05-13.69,0s-.51,0-.88-.27-5.62-5.31-5.85-5.49-.19-.27-.23-.67,0-8.15,0-11.88S72.46,1.06,72.5.65s0-.31.51-.36,7.24,0,9,.05a9.6,9.6,0,0,1,4.79.89A21.28,21.28,0,0,1,92,4.88a25.41,25.41,0,0,1,6.55,8.51,6,6,0,0,1,.56,2.74c0,1.39,0,6.66,0,9.45A71.5,71.5,0,0,1,99.05,33ZM91.35,9.24a8.89,8.89,0,0,0-2.69-5.53A9,9,0,0,0,83.6,1.28C82.11,1.14,74,1.1,73.71,1.1s-.46-.09-.46.09-.19,10.53-.19,12.15S73,32,73,32.15s0,.22.09.31,5.43.09,8.12-.09,3.86-.09,5.71-1.17a8.16,8.16,0,0,0,3.3-3.42,7.88,7.88,0,0,0,1.07-3.33c0-1.08,0-3,.09-5.22S91.39,11.09,91.35,9.24ZM79,7.09a7.28,7.28,0,0,1,1.39-.19c.75,0,1.16,0,1.72.09a4.48,4.48,0,0,1,2.51,1.13,4.21,4.21,0,0,1,1.07,2.61c.09.76,0,3.73,0,6.07s-.14,6.84-.28,7.47a2.94,2.94,0,0,1-.93,1.62,2.78,2.78,0,0,1-1.67.9,15.78,15.78,0,0,1-3.58,0c-.32-.09-.55-.22-.55-.36s.14-18.9.14-19.08A.25.25,0,0,1,79,7.09Z"/><path d="M128.81,13.29c-.05.32-.05.36-.33.41s-10.07-.09-10.3-.14-.33,0-.19.18,4,5.22,4,5.36a.48.48,0,0,1,.14.4c0,.23.14,5.09.14,5.31s0,.27-.1.36-.18.09,0,.27,6.13,5.85,6.31,6.08.19.27.19.49,0,6.26,0,6.66-.09.45-.41.45l-20,.18a.6.6,0,0,1-.47-.18c-.18-.13-6.31-5.67-6.45-5.8s-.37-.23-.37-.63.37-31.41.32-31.9c0-.32.1-.41.51-.45s19.78,0,20.1,0a1,1,0,0,1,.61.18c.23.13,5.71,4.81,6,5.08s.19.32.19.63S128.81,12.94,128.81,13.29Zm-8-11.83c0-.13,0-.27-.24-.27s-17.77-.13-18-.13-.37,0-.37.36-.51,30.68-.41,30.91,0,.22.23.22,18.38-.18,18.75-.18.23-.13.19-.31,0-5.22,0-5.45,0-.27-.28-.27-11.93.05-12.21.05-.28-.14-.28-.36,0-5.9,0-6.12.09-.32.33-.36,6.12-.05,6.4-.05.23,0,.23-.22.1-5.26.1-5.45,0-.18-.1-.18l-6.73-.09c-.18,0-.23-.08-.23-.27s-.05-5.66-.05-6c0-.09.05-.13.28-.18S120,7,120.36,7s.42-.18.42-.4S120.82,1.6,120.78,1.46Z"/><path d="M27.48,75.85c.51.94.37,2.34.37,4s.28,4.23-1.58,6.75-5.52,2.3-7,2.34S8.12,89,7.71,89s-.61,0-.93-.32-6-5.58-6.36-5.85-.33-.4-.33-.9c0-.31-.09-8.41-.09-16.29.05-7.47.14-14.75.14-15s0-.22.28-.27,6.17-.09,8.58-.09a13.13,13.13,0,0,1,5.81.9A25.35,25.35,0,0,1,22,56.46a23.38,23.38,0,0,1,3.76,4.4,6,6,0,0,1,.88,1.31,18.75,18.75,0,0,1,1.11,3.6A12.63,12.63,0,0,1,27.43,71a2.59,2.59,0,0,1-1.71,1.62c-.24,0-.38,0-.1.27A12.76,12.76,0,0,1,27.48,75.85Zm-9.66-9.54a11.28,11.28,0,0,0,2.33-5.45c.27-3-.75-4.94-2.84-7.1s-5-2.84-7.75-2.79-8,0-8.31,0-.37-.14-.46.09S.7,58.12.74,65.36c0,8.15.19,16.79.19,16.88s-.05.27.14.27,9.14-.18,10.4-.32A8.37,8.37,0,0,0,17.08,80c1.91-1.94,3.3-4.23,3.3-6.71S20,69.5,18.85,68.15s-1-1.17-1.12-1.3A.43.43,0,0,1,17.82,66.31ZM7.06,69.68c.18,0,1.48-.13,2.46-.18a5.17,5.17,0,0,1,3.24,1,3.44,3.44,0,0,1,.79,4.27,3.38,3.38,0,0,1-2.92,1.71c-.37,0-3.06,0-3.3,0S7,76.34,7,76,6.87,70.22,6.87,70,6.87,69.73,7.06,69.68ZM7.2,57a15.08,15.08,0,0,1,2.18-.09,5.42,5.42,0,0,1,2.13.32A3.11,3.11,0,0,1,13.69,59a3.31,3.31,0,0,1-.32,3.46,4.27,4.27,0,0,1-2.46,1.31c-.65.09-3,0-3.34,0S7,63.65,7,63.52s-.09-1.84-.09-3.2v-3.1C6.92,57.13,6.92,57,7.2,57Z"/><path d="M56.72,60.73a2.11,2.11,0,0,1-.28,1c-.18.36-5.75,13-6.08,13.77a13.37,13.37,0,0,0-.69,2.11,19.86,19.86,0,0,0-.24,2.61c0,.5-.09,8.69-.09,8.91s-.05.32-.32.32c-.42,0-8.82,0-9.33,0a1.3,1.3,0,0,1-1-.36l-6-5.89a.93.93,0,0,1-.18-.68c0-.31.14-12.24.14-12.51a4.81,4.81,0,0,0-.19-1.26c-.14-.54-7.47-17.59-7.56-17.81s-.05-.41.27-.45,7,0,7.43,0,.47,0,.74.32,5,4.45,5.39,4.81.37.31.46.05l2.28-5c.09-.18.09-.23.32-.23s1.9-.09,3.72-.09,3.29,0,3.57,0,.32.09.56.27,6.5,6.43,6.73,6.61.28.31.28.59S56.77,60.46,56.72,60.73Zm-9-9.67L42.47,51c-.23,0-.28,0-.37.17s-4.83,10.13-5,10.4-.27.58-.6-.09S32.07,51.6,32,51.33s-.09-.23-.37-.23-4.92.13-5.15.18-.23,0-.14.32,7,16.28,7.15,16.69a3.19,3.19,0,0,1,.14,1.12c0,.32-.14,12.38-.14,12.65s0,.4.28.4,5.47.09,5.66.05.28.09.23-.36S40,69.28,40,69.05a2.44,2.44,0,0,1,.24-.63c.09-.27,7.61-16.87,7.66-17.09S48,51.06,47.76,51.06Z"/><path d="M28.69,137a1.26,1.26,0,0,1-.24.68A4,4,0,0,1,26.64,139a12.16,12.16,0,0,1-3.34.18,4.13,4.13,0,0,1-1.95-.36,71.44,71.44,0,0,1-6.26-4.54c-.42-.36-.61-.18-.61.13s-.18,4.1,0,4.37-.28.36-.65.4l-6.59,0a.56.56,0,0,1-.47-.18c-.14-.14-6.13-5.67-6.31-5.85a1.12,1.12,0,0,1-.37-.95c0-.4,0-31,0-31.36s.28-.49,1-.58,7.93,0,10.67.31a14.24,14.24,0,0,1,7.11,2.66,47.13,47.13,0,0,1,6.31,6.16,12.26,12.26,0,0,1,2.83,4.5,9.72,9.72,0,0,1,.46,5.49,8.89,8.89,0,0,1-1.9,3.37c-.18.23-.18.32-.05.5a8.78,8.78,0,0,1,1.58,2c.65,1.31.47,3.11.51,5.22S28.69,136.74,28.69,137Zm-6.22-8.64A3.59,3.59,0,0,1,20.56,127a4.12,4.12,0,0,1-.55-2.61,12.73,12.73,0,0,0-.7-4.59,14.42,14.42,0,0,0-1.58-2.38c-.18-.23-.09-.32,0-.45a7.37,7.37,0,0,0,1.95-3.51,8.37,8.37,0,0,0-.46-6.21,11.25,11.25,0,0,0-4.69-4.91A15.39,15.39,0,0,0,8.12,101c-1.48-.09-6.73-.18-7-.18s-.18.14-.23.27S1,111.36.93,117s0,14.76,0,15,0,.45.28.45H6.5c.23,0,.37,0,.32-.36s0-11.52,0-11.88.14-.36.37-.4,3.81-.32,5,.45a3.73,3.73,0,0,1,1.81,3.64c0,2.07,0,5.63,1.17,6.89a3.4,3.4,0,0,0,3.06,1.57,3.55,3.55,0,0,0,3.16-1.3,5.14,5.14,0,0,0,1.16-2.3C22.7,128.41,22.7,128.41,22.47,128.32ZM7.06,107a22.22,22.22,0,0,1,2.41-.09,5.93,5.93,0,0,1,2.41.41,3.57,3.57,0,0,1,2.28,3.42,3,3,0,0,1-2.46,3.1,14.6,14.6,0,0,1-4.32.19c-.51,0-.56-.37-.56-.63s-.14-5.76-.09-6.08S6.87,107,7.06,107Z"/><path d="M58.39,133.14A6.41,6.41,0,0,1,57,136.51a7.72,7.72,0,0,1-4.69,2.88,24.75,24.75,0,0,1-6.82.05c-1.76-.18-3.11-.63-6.17-2.61A32.17,32.17,0,0,1,32.68,131a14.77,14.77,0,0,1-2.42-5.13c-.46-1.62-.14-6.35-.09-10.12s.19-6.35.23-7.7a8.77,8.77,0,0,1,1.81-4.68,10,10,0,0,1,7.15-4,11.94,11.94,0,0,1,7,1.3,41.77,41.77,0,0,1,5.3,3.56,36.19,36.19,0,0,1,4,4,12.31,12.31,0,0,1,2.51,4.41c.7,2.12.6,5.22.56,10.67S58.49,132.37,58.39,133.14Zm-7.7-16.65c0-3.6,0-5.63-.19-7.43a8.81,8.81,0,0,0-3.15-6.38,9.93,9.93,0,0,0-7.11-2.39,8.11,8.11,0,0,0-6.77,3.33,9.5,9.5,0,0,0-2.28,5.27c0,1.3,0,2.69-.09,7s-.14,7.47-.05,8.78a7.41,7.41,0,0,0,2.7,5c2,1.84,3.8,3,7.1,2.7s4.55-.63,6.36-2.3a10.22,10.22,0,0,0,3.29-6C50.64,122.11,50.69,120.13,50.69,116.49ZM40.48,106.23a4,4,0,0,1,2.92.86,3.15,3.15,0,0,1,1.07,2.74c0,1.17.09,11.16.14,12.19s0,4.41-3.53,4.5-3.58-2.47-3.76-3.42a68.65,68.65,0,0,1-.23-7.42c-.05-3.06-.05-4.82,0-5.54a4.6,4.6,0,0,1,.74-2.61A3,3,0,0,1,40.48,106.23Z"/><path d="M88.56,125.85c.51.94.37,2.34.37,4s.28,4.23-1.57,6.75-5.53,2.3-7,2.34-11.18.09-11.6.05-.6,0-.93-.32-6-5.58-6.36-5.85-.32-.4-.32-.9c0-.31-.1-8.41-.1-16.29.05-7.47.14-14.75.14-15s0-.22.28-.27,6.18-.09,8.59-.09a13.11,13.11,0,0,1,5.8.9A25.21,25.21,0,0,1,83,106.46a23.38,23.38,0,0,1,3.76,4.4,6,6,0,0,1,.88,1.31,18,18,0,0,1,1.11,3.6,12.64,12.64,0,0,1-.27,5.26,2.58,2.58,0,0,1-1.72,1.62c-.23,0-.37,0-.09.27A12.78,12.78,0,0,1,88.56,125.85Zm-9.65-9.54a11.31,11.31,0,0,0,2.32-5.45c.28-3-.74-4.94-2.83-7.1s-5-2.84-7.75-2.79-8,0-8.31,0-.37-.14-.47.09-.09,7.06,0,14.3c0,8.15.18,16.79.18,16.88s0,.27.14.27,9.15-.18,10.4-.32a8.39,8.39,0,0,0,5.62-2.2c1.9-1.94,3.29-4.23,3.29-6.71s-.42-3.78-1.53-5.13-1-1.17-1.11-1.3S78.72,116.53,78.91,116.31Zm-10.77,3.37c.19,0,1.48-.13,2.46-.18a5.22,5.22,0,0,1,3.25,1,3.46,3.46,0,0,1,.79,4.27,3.4,3.4,0,0,1-2.93,1.71c-.37,0-3.06,0-3.29,0s-.33,0-.33-.36S68,120.22,68,120,68,119.73,68.14,119.68ZM68.28,107a15.23,15.23,0,0,1,2.18-.09,5.46,5.46,0,0,1,2.14.32A3.15,3.15,0,0,1,74.78,109a3.31,3.31,0,0,1-.33,3.46A4.24,4.24,0,0,1,72,113.79c-.65.09-3,0-3.34,0s-.56-.18-.56-.31-.09-1.84-.09-3.2v-3.1C68,107.13,68,107,68.28,107Z"/><path d="M105.74,138.31c0,.86-.24.77-.61.77H98.31a1.08,1.08,0,0,1-.93-.32c-.32-.31-5.52-4.68-5.8-4.81a1,1,0,0,1-.37-.68c0-.36-.14-9.36-.14-15.93s.05-16.46.05-16.91c0-.23-.05-.37.27-.41s7.06,0,7.48,0,.51.1.79.41,5.57,4.77,5.89,5a.85.85,0,0,1,.33.59v15.34C105.88,126,105.74,137.55,105.74,138.31ZM98,132c0-.32,0-10.85-.09-15.39s-.28-14.62-.28-15,0-.59-.23-.59l-5,0c-.28,0-.32,0-.32.31s0,9.49,0,14.67,0,15.3,0,15.7,0,.45.28.5a11.06,11.06,0,0,0,2.83.31c1.44,0,2.36,0,2.5,0S98.08,132.33,98,132Z"/><path d="M137.49,138.31c-.05.77-.24,1-.47,1.08s-6.5,0-7.05,0a2.25,2.25,0,0,1-1.16-.36c-.38-.27-4.37-2.74-4.83-3.1s-.42-.23-.42.13v2.84c0,.54-.28.49-.7.54s-7.52,0-7.79-.05a1.06,1.06,0,0,1-.75-.22c-.28-.27-5.29-4.73-5.66-5s-.42-.45-.42-.95,0-12.69,0-15.66.14-16.42.14-16.69.09-.4.51-.45,6.22-.09,6.77-.09a1.89,1.89,0,0,1,1.21.36c.42.27,4.83,2.7,5.48,3.2s.42.22.42-.09,0-2.66,0-3,0-.45.42-.45l7.56,0a1.78,1.78,0,0,1,1.21.4,28.44,28.44,0,0,1,2.6,1.94c1.3,1.12,1.81,1.84,2.23,2.2s.42.63.46,1.44S137.49,137.59,137.49,138.31Zm-7.71-6.21c0-.31-.14-30.64-.14-30.87a.33.33,0,0,0-.37-.26l-5.34.17c-.14,0-.23,0-.23.41v16.56c0,.58.09,1.12-.46,0s-3.07-7.2-4.09-9.4-3.39-7.33-3.48-7.52-.09-.26-.33-.26-5.66.13-6,.17-.24.19-.24.32,0,13.27,0,17.19,0,13.27,0,13.5,0,.36.19.36,5.25-.09,5.52-.18.42.09.38-.5-.14-17.32-.14-18,.23-.22.32.09,8.08,18,8.22,18.32.18.4.46.4l5.43-.18C129.73,132.46,129.78,132.42,129.78,132.1Z"/></g></g></svg>